<?xml version="1.0" encoding="utf-8"?>
<!-- Generator: Adobe Illustrator 25.4.1, SVG Export Plug-In . SVG Version: 6.00 Build 0)  -->
<svg version="1.1" id="Layer_1" xmlns="http://www.w3.org/2000/svg" xmlns:xlink="http://www.w3.org/1999/xlink" x="0px" y="0px"
	 viewBox="0 0 600 450" style="enable-background:new 0 0 600 450;" xml:space="preserve">
<style type="text/css">
	.st0{fill:#8BC0CC;}
	.st1{fill:#599DAD;}
	.st2{fill:#BCECF7;}
	.st3{fill:#6BB7BF;}
	.st4{fill:#24555E;}
	.st5{fill:#DCF6F9;}
	.st6{fill:#49ADB7;}
	.st7{fill:#FF4B42;}
	.st8{fill:#1C3A3E;}
	.st9{fill:#163560;}
	.st10{fill:#F9A6A0;}
	.st11{fill:#FCBDB6;}
	.st12{fill:#FF7B69;}
	.st13{fill:#501506;}
</style>
<g>
	<g>
		<path class="st0" d="M200.8,114.5c0,0,6.2-24.51-13.05-28.57c0,0-13.14-1.1-21.13,3.49c0,0,21.39,13.78,18.58,17.6
			c-2.81,3.82-22.73-17.07-22.73-17.07s-24.1,9.18-29.73,16.41c0,0,27.64,6.33,23.98,9.34c-3.66,3.01-32.73-2.24-32.73-2.24
			s-19.59,14.27-11.97,26.75c7.62,12.49,17,12.86,20.06,10.9c3.07-1.96,18.43-18.6,20.16-16.15c1.73,2.45-5.37,16.79-13.16,21.17
			c0,0,23.35,9.15,30.99-0.63c7.64-9.78,4.72-17.82,9.55-23.77c4.83-5.96,10.17-8.6,9.04-4.41c-1.14,4.19-11.04,12.64-11.48,20.73
			c-0.44,8.1-1.53,13.95,8.07,7.24c9.6-6.71,22.69-22.67,19.12-31.73C200.8,114.5,200.8,114.5,200.8,114.5z"/>
		<g>
			<path class="st0" d="M122.7,135.34c0,0,57.01-31.09,78.1-20.84c0,0,7.06,7.09,19.64,10.5l3.2,3.03c0,0-15.34-5.62-19.27-4.47
				C204.37,123.56,199.79,100.17,122.7,135.34z"/>
			<path class="st1" d="M220.44,125c0,0,17.06,3.03,26.11,19.09l-2.16,1.33c0,0-12.45-15.07-22.96-18.16
				C210.91,124.16,220.44,125,220.44,125z"/>
		</g>
	</g>
	<g>
		<path class="st2" d="M224.3,76.52c0,0,29.73-26.09,8.52-48.39c0,0-15.95-13.07-30.32-14.25c0,0,15.34,36.72,8.33,39.15
			c-7.01,2.43-14.15-42.15-14.15-42.15s-39.19-9.53-52.86-5.21c0,0,30,32.66,22.61,33.29c-7.39,0.63-40.19-31.9-40.19-31.9
			S88.37,8.08,87.11,30.92c-1.25,22.85,10.5,31.64,16.18,31.84c5.69,0.2,40.24-7.63,40.3-2.93c0.06,4.69-21.81,16.87-35.72,15.6
			c0,0,21.97,32.49,40.49,26.66c18.52-5.82,21.88-18.77,33.39-22.16c11.51-3.39,20.73-2.06,15.55,2.34
			c-5.18,4.4-25.43,6.49-33.17,16.54c-7.74,10.05-14.34,16.63,3.98,16.49c18.32-0.14,49.34-9.09,52.77-23.93
			C224.3,76.52,224.3,76.52,224.3,76.52z"/>
		<g>
			<path class="st0" d="M105.2,34.13c0,0,101.02,10.49,119.1,42.39c0,0,2.81,15.4,15.99,30.94l1.44,6.75
				c0,0-14.79-20.84-20.86-22.85C220.88,91.36,235.71,57.16,105.2,34.13z"/>
			<path class="st3" d="M240.3,107.46c0,0,19.29,19.03,16.71,47.74l-3.96-0.21c0,0-2.68-30.45-13.48-43.75
				C228.76,97.94,240.3,107.46,240.3,107.46z"/>
		</g>
	</g>
	<g>
		<path class="st2" d="M217.59,316.8c0,0,38.58-8.7,30.61-38.43c0,0-7.77-19.11-19.82-27c0,0-4.07,39.59-11.39,38.38
			c-7.32-1.21,7.72-43.79,7.72-43.79s-29.87-27.11-43.94-29.84c0,0,10.74,43.03,3.95,40.05c-6.8-2.98-20.05-47.23-20.05-47.23
			s-33.76-17.22-45.78,2.25c-12.02,19.47-5.9,32.81-1,35.7c4.9,2.89,38.99,12.54,36.8,16.69c-2.19,4.15-27.22,4.4-38.84-3.37
			c0,0,3.77,39.04,22.82,42.77c19.05,3.74,28.19-6.03,39.92-3.51c11.73,2.52,19.19,8.1,12.54,9.48c-6.65,1.39-25.44-6.45-37.04-1.33
			c-11.6,5.12-20.54,7.75-4.39,16.39c16.15,8.64,47.69,15.6,57.79,4.2C217.59,316.8,217.59,316.8,217.59,316.8z"/>
		<g>
			<path class="st0" d="M133.23,222.64c0,0,83.72,57.5,84.36,94.16c0,0-4.89,14.87-0.74,34.82l-1.96,6.62c0,0-3.03-25.38-7.4-30.04
				C207.48,328.2,236.86,305.24,133.23,222.64z"/>
			<path class="st3" d="M216.85,351.62c0,0,7.84,25.93-8.14,49.92l-3.38-2.08c0,0,12.2-28.03,9.07-44.87
				C211.27,337.74,216.85,351.62,216.85,351.62z"/>
		</g>
	</g>
	<g>
		<rect x="192.6" y="49.56" class="st4" width="280.79" height="394.31"/>
		<g>
			<rect x="202.47" y="60.48" class="st5" width="261.06" height="376.09"/>
			<rect x="229.35" y="106.63" class="st6" width="213.12" height="12.19"/>
			<rect x="229.35" y="181.02" class="st6" width="213.12" height="5.59"/>
			<rect x="229.35" y="194.18" class="st6" width="213.12" height="5.59"/>
			<rect x="229.35" y="207.33" class="st6" width="213.12" height="5.59"/>
			<rect x="229.35" y="220.49" class="st6" width="213.12" height="5.59"/>
			<rect x="229.35" y="233.64" class="st6" width="213.12" height="5.59"/>
			<rect x="229.35" y="246.8" class="st6" width="213.12" height="5.59"/>
			<g>
				
					<ellipse transform="matrix(0.9239 -0.3827 0.3827 0.9239 -102.728 129.9615)" class="st7" cx="275.32" cy="323.2" rx="16.44" ry="16.44"/>
				<path class="st6" d="M360.61,339.01c-0.05,0-0.09,0-0.14-0.01c-0.45-0.08-0.75-0.5-0.67-0.95c0.15-0.9,3.89-22.18,15.7-29.42
					c0.84-0.51,1.37-0.25,1.61-0.04c1.04,0.89,0.25,3.14-3.3,11.66c-1.42,3.4-3.09,7.42-3.79,9.87c1.26-1.65,3.14-4.47,4.63-6.71
					c4.67-7.01,5.58-8.15,6.49-8.15c0.34,0,0.64,0.16,0.83,0.43c0.5,0.71,0.12,1.9-1.17,5.39c-0.49,1.34-1.25,3.39-1.47,4.49
					c0.67-0.6,1.65-1.89,2.25-2.66c1.62-2.1,2.44-3.11,3.4-2.96c0.2,0.03,0.7,0.17,0.93,0.83c0.1,0.27,0.14,0.58,0.19,0.9
					c0.13,0.84,0.27,1.8,1.28,2.37c2.05,1.16,7.95,1.09,24.44-5.79c0.42-0.17,0.9,0.02,1.08,0.44c0.17,0.42-0.02,0.9-0.44,1.08
					c-13.92,5.8-22.39,7.67-25.88,5.7c-1.7-0.96-1.95-2.56-2.1-3.53c-0.47,0.49-1.12,1.34-1.6,1.96c-1.78,2.32-2.96,3.72-4.15,3.62
					c-0.37-0.03-0.68-0.22-0.87-0.53c-0.57-0.9-0.01-2.67,1.4-6.5c0.23-0.61,0.49-1.31,0.71-1.97c-1.14,1.56-2.69,3.89-3.95,5.77
					c-5.23,7.85-6.17,8.99-7.23,8.7c-0.16-0.04-0.69-0.25-0.74-1.01c-0.1-1.84,1.61-6.1,4.23-12.39c1.33-3.2,3.08-7.39,3.51-9.23
					c-10.73,7.21-14.33,27.72-14.37,27.93C361.35,338.73,361,339.01,360.61,339.01z M378.82,325.91L378.82,325.91L378.82,325.91z"/>
			</g>
		</g>
		<path class="st7" d="M394.5,43.17h-33.11c0.74-1.96,1.15-4.08,1.15-6.3c0-9.84-7.98-17.82-17.82-17.82
			c-9.84,0-17.82,7.98-17.82,17.82c0,2.22,0.41,4.34,1.15,6.3h-33.11c-2.66,0-4.82,2.16-4.82,4.82v13.38c0,2.66,2.16,4.82,4.82,4.82
			h99.55c2.66,0,4.82-2.16,4.82-4.82V47.99C399.32,45.33,397.16,43.17,394.5,43.17z M344.73,43.44c-3.63,0-6.58-2.95-6.58-6.58
			c0-3.63,2.95-6.58,6.58-6.58c3.63,0,6.58,2.95,6.58,6.58C351.31,40.5,348.36,43.44,344.73,43.44z"/>
	</g>
	<g>
		<g>
			<path class="st8" d="M29.02,442.32c6.64-6.78,18.33-11.45,31.83-11.99v-19.98h-23.3c-0.52,0-0.98-0.45-1.27-1.15
				c-0.2-0.49-0.33-1.09-0.33-1.75v-1.01c0-1.59,0.72-2.9,1.6-2.9h23.3v-55.82c0-1.47,1.21-2.68,2.68-2.68l0,0
				c1.47,0,2.68,1.21,2.68,2.68v55.82h23.3c0.88,0,1.6,1.3,1.6,2.9v1.01c0,0.68-0.13,1.3-0.35,1.8c-0.29,0.67-0.75,1.1-1.25,1.1
				h-23.3v19.98c13.5,0.55,25.19,5.22,31.83,11.99c0.48,0.49,0.94,0.99,1.36,1.51H27.66C28.08,443.32,28.54,442.81,29.02,442.32z"/>
			<path class="st4" d="M60.85,430.43c9.42,0.87,17.52,5.42,22.21,11.9c0.36,0.49,0.69,0.99,1.01,1.51h6.64
				c-0.32-0.51-0.65-1.01-1.01-1.51c-5.23-7.22-14.71-12.05-25.53-12.05C63.05,430.27,61.94,430.33,60.85,430.43z"/>
		</g>
		<path class="st9" d="M134.29,430.53c0,0,0.81,13.09,3.34,13.28c0.34,0.02,12.85,0.02,12.85,0.02l15.97-0.09
			c0,0-0.1-3.85-4.77-4.66c-4.67-0.81-12.48-4.09-15.31-10.26C143.4,422.32,134.29,430.53,134.29,430.53z"/>
		<path class="st8" d="M71.05,334.33c2.28,3.87,4.92,7.49,7.63,10.92c8.4,10.6,17.54,19.35,19.14,27.61
			c0.32,1.65,0.82,3.42,1.48,5.29c0.67,1.89,1.49,3.88,2.44,5.94c3.56,7.74,8.89,16.42,14.22,24.3
			c9.2,13.63,16.73,22.78,16.73,22.78s2.41,1.88,9.31,1.88c1.92,0,8.38-1.05,8.38-1.05c-0.64-1.59-8.27-19.69-17.52-42.69
			c-3.76-9.34-7.76-19.27-11.61-28.85c-0.51-1.28-1.03-2.55-1.54-3.82c-1.18-2.93-2.34-5.82-3.47-8.63
			c-8.69-21.6-15.61-38.8-15.61-38.8s-34.74-13.16-38.35-4.63C59.29,311.63,61.72,318.51,71.05,334.33z"/>
		<rect x="130.16" y="298.23" class="st6" width="52.61" height="145.6"/>
		
			<rect x="180.58" y="298.23" transform="matrix(-1 -1.224647e-16 1.224647e-16 -1 398.8056 742.0573)" class="st0" width="37.64" height="145.6"/>
		<rect x="126.59" y="295.29" class="st4" width="54.36" height="2.94"/>
		<rect x="180.95" y="295.29" class="st6" width="41.16" height="2.94"/>
		<path class="st10" d="M125.77,275.7c0,0,7.54,4.29,9.65,4.29c2.11,0,10.39-1.6,12.7-0.42c2.31,1.18,6.49,5.93,7.27,7.48
			c1.41,2.79-5.68,1.56-9.03-0.82c-0.49-0.34-1.09-0.47-1.67-0.35c-1.73,0.38-5.34,1.03-7.08,0.39c-2.34-0.87-14.67-1.83-14.67-1.83
			L125.77,275.7z"/>
		<path class="st7" d="M68.41,217.31c0,0,7.81,55.54,20.76,60.52c6.39,2.45,34.6,8.02,42.95,8.58c0,0,2.04-1.66,1.55-8.41
			c0,0-29.57-10.85-33.77-16.76c-6.25-8.78,3.88-35.89-3.96-44.14C88.09,208.85,74.88,205.3,68.41,217.31z"/>
		<path class="st7" d="M97.55,393.12c0,0-11.04,7.09-9.96,9.39c0.14,0.31,6.24,11.23,6.24,11.23l7.87,13.9c0,0,3.31-1.97,1.74-6.44
			c-1.57-4.47-2.51-12.89,1.5-18.37C109.16,397.08,97.55,393.12,97.55,393.12z"/>
		<path class="st4" d="M103.82,406.72c0,0-7.77-7.21-8.98-11.68c0,0,28.42-34.05,34.58-41.68c0.28-0.35,0.21-0.73-0.16-1.16
			c-4.65-5.25-56.36-15.91-63.12-26.43c-2.33-3.62-3.65-7.06-4.37-10.07c-1.53-6.42-0.32-10.85-0.32-10.85l51.64-1.49
			c0,0,42.99,26.77,47.86,45.02C165.82,366.65,103.82,406.72,103.82,406.72z"/>
		<path class="st8" d="M129.26,352.21c-4.65-5.25-56.36-15.91-63.12-26.43c-2.33-3.62-3.65-7.06-4.37-10.07v-6.54l21.95-3.45
			c0,0,6.22,19.15,24.66,26.33C125.65,338.78,128.92,350.72,129.26,352.21z"/>
		<path class="st11" d="M98.96,213.81c-10.45,2.7-27.76-6.98-27.76-6.98s6.72-4.52,9.22-14.45c0.13-0.5,0.24-1.01,0.34-1.54
			c1.09-0.23,3.16-0.67,5.36-1.14l7.98,7.15c0,0-0.18,2.97-1.18,8.07c-0.17,0.89-0.37,1.85-0.6,2.86
			C96.6,210.44,98.96,213.81,98.96,213.81z"/>
		<path class="st12" d="M60.14,257.11c1.5,20.12-0.47,50.73,1.23,56.03c1.46,4.57,18.16,1.85,24.82,0.33
			c2.47-0.56,5.45-1.37,8.54-2.33c8.61-2.66,17.98-6.47,18.99-9.29c0.04-0.11,0.07-0.22,0.09-0.33c0.09-0.41,0.07-0.79-0.02-1.18
			c-0.34-1.44-1.63-3-1.78-6.56c-0.17-3.98-0.14-8.67-0.29-13.71c-0.01-0.57-0.02-1.19-0.08-1.75l0-0.21c0-0.11-0.01-0.21-0.01-0.32
			c-0.14-5.62-0.44-11.53-0.78-17.39c-0.22-3.68-0.47-7.33-0.76-10.82c-0.75-9.02-1.76-17.03-3.1-22.1
			c-2.19-8.26-7.01-13.65-11.4-17.6l-3.18-2.72c-3.54,0.77-7.73,0.26-11.52-1.53c-4.1-1.95-5.52-3.34-6.23-2.82
			C65.18,210.12,58.37,232.51,60.14,257.11z"/>
		<path class="st7" d="M94.72,311.15c8.61-2.66,17.98-6.47,18.99-9.29c0.04-0.11,0.07-0.22,0.09-0.33
			c-0.01-0.39-0.01-0.79-0.02-1.18c-0.34-1.44-1.63-3-1.78-6.56c-0.17-3.98-0.14-8.67-0.29-13.71c-0.01-0.57-0.02-1.19-0.08-1.75
			l0-0.21c0-0.11-0.01-0.21-0.01-0.32l-34.79-44.32C76.83,233.47,53.45,282.17,94.72,311.15z"/>
		<path class="st10" d="M94.1,196.86c0,0-0.18,2.97-1.18,8.07c-7.79-2.52-11.33-9.56-12.51-12.54c0.13-0.5,0.24-1.01,0.34-1.54
			c1.09-0.23,3.16-0.67,5.36-1.14L94.1,196.86z"/>
		<path class="st11" d="M95.15,201.36c0,0-16.99-2.84-15.06-13.39c1.93-10.55,1.03-18.03,11.97-16.66
			c10.93,1.36,12.3,5.78,12.51,9.46C104.78,184.44,99.62,201.82,95.15,201.36z"/>
		<polygon class="st8" points="132.37,292.7 174.81,292.7 186.34,255.41 187.84,255.88 175.65,295.29 132.35,295.29 		"/>
		<path class="st11" d="M121.12,293.78c0,0,13.91,3.67,19.12,3.28c5.22-0.38,9.55-2.87,10.21-4.16c0.66-1.29,2.03-3.59-1.52-3.17
			c-3.55,0.42-8.4,1.18-8.55,0.5c-0.15-0.68,2.89-0.62,2.89-0.62s0.92-1.34-0.24-1.39c-1.16-0.05-4.54-0.97-5.79-0.34
			c-1.26,0.63-2.41,2.95-3.33,2.85c-0.92-0.1-11.64-4.83-11.64-4.83L121.12,293.78z"/>
		<path class="st12" d="M71.86,220.08c0,0,1.64,56.07,13.96,62.44c6.08,3.14,33.51,11.79,41.74,13.26c0,0,2.22-1.42,2.46-8.19
			c0,0-28.19-14.05-31.71-20.38c-5.24-9.42,7.81-35.24,0.93-44.31C92.36,213.84,79.62,208.86,71.86,220.08z"/>
		<path class="st13" d="M80.42,192.39c0,0-0.19-3.62,2.04-5.7c0,0-0.78-3.63,0.66-4.23c1.44-0.6,1.74,2.45,2.39,1.97
			c0.66-0.48,3.59-2.75,4.85-6.1c1.26-3.35,12.76,0.71,14.1,1.31c1.34,0.6,5.65-1.61,6.49-3.41c0,0-2.39-1.92-3.47-3.35
			c-1.08-1.44-8.62-11.13-19.15-8.38c-10.53,2.75-11.97,7.78-11.37,12.09C77.55,180.91,76.1,190.94,80.42,192.39z"/>
		<path class="st0" d="M99.98,327.1L99.98,327.1c-15.97,0-31.78-3.23-46.47-9.5l-9.53-4.07c-8.65-3.69-18.27,2.65-18.27,12.06v4.73
			v8.2v5.26c0,1.77,1.45,3.22,3.22,3.22h71.05c1.77,0,3.22-1.45,3.22-3.22v-13.47C103.2,328.55,101.75,327.1,99.98,327.1z"/>
	</g>
	<g>
		<path class="st7" d="M377.7,341.1c-14.97,2.57-29.49,3.13-40.54,2.26c-11.16-0.88-17.68-4.32-18.36-8.25
			c-0.61-3.56,3.52-7.65,11.95-11.81l0,0c-8.08,3.99-12,8.48-11.44,11.72c0.62,3.59,7.13,6.14,17.87,6.98
			c11.01,0.86,25.29-0.07,40.22-2.63c14.93-2.56,28.71-6.44,38.8-10.93c9.84-4.37,15.13-8.95,14.52-12.54
			c-0.65-3.81-7.68-7.47-18.34-9.56c-12.12-2.38-26.42-1.58-40.5,0.84c-26.44,4.54-36.8,9.49-45.58,14.98l0,0
			c8.82-5.51,18.81-11.76,45.35-16.32c14.14-2.43,28.64-2.45,40.81-0.06c10.88,2.14,18.07,5.98,18.77,10.03
			c0.67,3.93-4.59,8.6-14.82,13.15C406.29,333.47,392.67,338.54,377.7,341.1z"/>
	</g>
	<g>
		<path class="st11" d="M552,292.07c0,0-0.87,8.43-1.82,10.03c-0.95,1.6-5,6.69-6.73,7.69c-1.73,1,1.05-6.72,0.7-8.22
			c-0.35-1.5-1.42,2.74-2.18,2.84c-0.76,0.1-0.56-3.72-0.59-5.11c-0.03-1.39,3.7-4.82,5.02-7.78
			C547.71,288.57,552,292.07,552,292.07z"/>
		<path class="st11" d="M448.4,214.29l-1.94-3.66c0,0,0.96-6.52-7.2-10.64c0,0-2.98-1.21-4.67,1.22c-1.55,2.24,2.96,1.84,2.72,5.67
			c-0.24,3.83,1.58,6.09,4.11,7.33l2.09,2.43L448.4,214.29z"/>
		<path class="st6" d="M525.56,205.55c0,0-7.01,34.41-45.6,45.66c-12.04,3.51-39.41-36.14-39.41-36.14s0.96-3.66,6.99-2.82
			c0,0,26.64,17.64,30,19.55c2.98,1.7,22.55-21.86,31.47-25.66C517.94,202.34,525.56,205.55,525.56,205.55z"/>
		<g>
			
				<rect x="436.65" y="186.97" transform="matrix(0.1518 -0.9884 0.9884 0.1518 170.7059 609.1124)" class="st7" width="7.21" height="36.25"/>
			<polygon class="st8" points="414.01,201.06 421.79,205.9 422.89,198.78 			"/>
			<path class="st8" d="M462.52,207.29l-0.35,2.25c-0.21,1.39-1.51,2.34-2.89,2.12l-1.66-0.25l1.09-7.12l1.8,0.28
				C461.83,204.76,462.72,205.98,462.52,207.29z"/>
		</g>
		<g>
			<path class="st7" d="M571.63,421.88c0,0,4.79,4.37,3.85,7.47c-0.93,3.1-5.25,5.17-5.84,8.97c-0.58,3.79-2.92,5.86-5.02,5.86
				c-2.1,0-10.02,0-10.02,0s-1.55-2.67,2.19-3.47c3.74-0.8,5.14-5.26,4.91-9.4c-0.23-4.14,0.35-9.66,0.35-9.66l7.94-1.84
				L571.63,421.88z"/>
			<path class="st7" d="M512.9,433.18c0,0,0.86,9.94-1.24,10.98l-26.89-0.05c0,0,0-3.1,4.32-3.79c4.32-0.69,11.91-3.22,13.19-8.85
				C503.56,425.83,512.9,433.18,512.9,433.18z"/>
			<path class="st4" d="M490.2,292.75c0,0,1.42,17.43,3.09,38.37c2.27,28.45,4.99,63.41,5.26,70.03c0.47,11.5,2.34,29.89,2.34,29.89
				s4.43,4.37,13.31,2.53c0,0,7.91-26.26,10.17-54.03c0.04-0.46,0.07-0.91,0.11-1.37c2.1-28.28,5.37-87.83,5.37-87.83L490.2,292.75z
				"/>
			<path class="st8" d="M490.2,292.75c0,0,1.42,17.43,3.09,38.37l31.07,48.41c0.04-0.46,0.07-0.91,0.11-1.37
				c2.1-28.28,5.37-87.83,5.37-87.83L490.2,292.75z"/>
			<path class="st4" d="M496.67,294.82c0,0,25.57,63.11,42.38,92.77c16.81,29.66,22.07,37.94,22.07,37.94s9.63-3.79,10.51-6.38
				c0,0-6.43-57.26-17.69-71.22c-6.36-7.89-13.83-31.56-14.18-39.83c-0.35-8.28-2.28-24.66-2.28-24.66L496.67,294.82z"/>
		</g>
		<path class="st11" d="M530.31,197.56c0,0-17.3,8.35-27.27,5.25c0,0,2.46-3.1,6.75-5.4c-0.35-2-0.61-3.74-0.77-5.21
			c-0.42-3.4-0.42-5.33-0.42-5.33l6.67-5.25l6.33-5.02C521.11,190.72,530.31,197.56,530.31,197.56z"/>
		<path class="st0" d="M539.43,286.67c0.04,1.06-2.22,2.27-3.22,2.72c-7.4,3.25-14.31,5.51-22.13,6.27
			c-9.24,0.94-20.18-1.13-23.94-1.06c-0.38,0-0.73-0.15-1.04-0.42c-0.27-0.19-0.46-11.33-0.27-25.34c0-0.57,0-1.13,0.04-1.7v-0.19
			c0.08-5.48,0.27-11.22,0.54-16.96c0.54-12.62,1.53-24.78,3.22-31.5c2.03-7.93,6.64-13.18,10.82-17l3.45-3.02
			c3.45,0.68,7.1,0.49,10.74-1.28c3.99-1.93,8.29-4,8.98-3.48c5.22,3.81,8.75,12.39,10.62,23.34c1.07,6.31,1.61,13.37,1.57,20.77
			c0,2.72-0.08,5.51-0.23,8.27c-0.92,14.96,0,27.95,0.54,35.47C539.28,283.76,539.39,285.46,539.43,286.67z"/>
		<path class="st6" d="M539.12,285.98c-60.58-0.12-11.17-65.73-11.17-65.73l9.81-3.19c0.78,6.74,1.16,14.28,1.14,22.19
			c0,2.91-0.06,5.89-0.17,8.84C538.07,264.07,538.74,277.95,539.12,285.98z"/>
		<path class="st10" d="M521.72,182c0,0-4.37,7.97-12.7,10.2c-0.42-3.4-0.42-5.33-0.42-5.33l6.67-5.25L521.72,182z"/>
		<path class="st11" d="M505.56,186.64c0,0,16.5,2.7,18.05-7.45c1.55-10.15,4.72-16.63-5.75-18.78
			c-10.47-2.15-13.11,1.41-14.47,4.68S501.31,185.68,505.56,186.64z"/>
		<path class="st13" d="M529.61,159.2c0.15-0.17,0.5-0.31,1.26-0.35c0,0-0.61-0.38-1.44-0.4c-0.16-1.07-0.73-2.96-2.57-3.42
			c0,0,0.99,0.53,1.12,1.66c-2.13-2.19-6.7-3.78-19.35-2.78c-16.67,1.32-11.17,11.99-9.02,13.26c2.16,1.27,7.59-2.22,11.61-1.9
			c4.02,0.32,4.79,6.13,6.15,6.93c1.36,0.8,0.83-0.61,2.67-1.45c1.85-0.83,2.02,2.22,1.49,4.21c-0.53,1.99,2,4.61,2,4.61
			s0,0,2.56-2.76c2.56-2.76,4.98-14.45,3.81-16.94C529.82,159.64,529.72,159.42,529.61,159.2z"/>
		<path class="st0" d="M526.61,193.64c0,0,10.44,4.94,15.45,12.55c7.77,11.79,16.77,54.76,16.93,58.74
			c0.17,3.98-6.57,32.07-6.57,32.07s-6.83-0.45-8.59-3.9c0,0,1.37-28.87,0.5-30.72c-0.87-1.86-28.48-38.72-25.38-46.59
			C522.06,207.93,526.61,193.64,526.61,193.64z"/>
		<path class="st11" d="M446.43,210.46c0,0,0.57-2.24-0.99-3.25c-1.56-1.01-2.99-3.75-3.64-3.38c-1.36,0.77,0.74,3.16,0.36,6.15
			C442.02,211.02,444.45,213.76,446.43,210.46z"/>
	</g>
	<path class="st8" d="M0.53,445.45h598.93c0.29,0,0.53-0.36,0.53-0.81l0,0c0-0.44-0.24-0.81-0.53-0.81H0.53
		c-0.29,0-0.53,0.36-0.53,0.81l0,0C0,445.08,0.24,445.45,0.53,445.45z"/>
</g>
</svg>
